<svg width="54" height="58" viewBox="0 0 54 58" fill="none" xmlns="http://www.w3.org/2000/svg">
<g filter="url(#filter0_d_0_386)">
<rect y="2" width="50" height="50" rx="14" fill="url(#paint0_linear_0_386)"/>
</g>
<path fill-rule="evenodd" clip-rule="evenodd" d="M29.2703 17.8649C29.2703 20.5517 31.4483 22.7297 34.1351 22.7297C36.8219 22.7297 39 20.5517 39 17.8649C39 15.1781 36.8219 13 34.1351 13C31.4483 13 29.2703 15.1781 29.2703 17.8649ZM27.3319 17.5405C27.3528 17.0956 27.4163 16.6618 27.5186 16.2432H18.892C16.7425 16.2432 15 17.9861 15 20.1352V33.108C15 35.2575 16.7429 37 18.892 37H31.8648C34.0142 37 35.7568 35.2571 35.7568 33.108V24.4814C35.3382 24.5837 34.9044 24.6472 34.4595 24.6681V33.108C34.4595 34.5408 33.2976 35.7027 31.8648 35.7027H18.892C17.4592 35.7027 16.2973 34.5409 16.2973 33.108V20.1352C16.2973 18.7025 17.4591 17.5405 18.892 17.5405H27.3319Z" fill="white"/>
<defs>
<filter id="filter0_d_0_386" x="-4" y="0" width="58" height="58" filterUnits="userSpaceOnUse" color-interpolation-filters="sRGB">
<feFlood flood-opacity="0" result="BackgroundImageFix"/>
<feColorMatrix in="SourceAlpha" type="matrix" values="0 0 0 0 0 0 0 0 0 0 0 0 0 0 0 0 0 0 127 0" result="hardAlpha"/>
<feOffset dy="2"/>
<feGaussianBlur stdDeviation="2"/>
<feColorMatrix type="matrix" values="0 0 0 0 0.0313726 0 0 0 0 0.14902 0 0 0 0 0.658824 0 0 0 0.15 0"/>
<feBlend mode="normal" in2="BackgroundImageFix" result="effect1_dropShadow_0_386"/>
<feBlend mode="normal" in="SourceGraphic" in2="effect1_dropShadow_0_386" result="shape"/>
</filter>
<linearGradient id="paint0_linear_0_386" x1="-25" y1="27" x2="25" y2="77" gradientUnits="userSpaceOnUse">
<stop stop-color="#32FBFC"/>
<stop offset="1" stop-color="#3214F2"/>
</linearGradient>
</defs>
</svg>
