<svg width="54" height="58" viewBox="0 0 54 58" fill="none" xmlns="http://www.w3.org/2000/svg">
<g filter="url(#filter0_d_0_360)">
<rect y="2" width="50" height="50" rx="14" fill="url(#paint0_linear_0_360)"/>
</g>
<path fill-rule="evenodd" clip-rule="evenodd" d="M26.9844 36.4145C27.2334 36.7799 27.3784 37.2179 27.3784 37.6889C27.3784 38.9653 26.3135 40 25 40C23.6865 40 22.6216 38.9653 22.6216 37.6889C22.6216 37.2179 22.7666 36.7799 23.0156 36.4145L17.7361 32.3644C17.3511 32.625 16.8831 32.7778 16.3784 32.7778C15.0648 32.7778 14 31.7431 14 30.4667C14 29.3384 14.832 28.3989 15.9324 28.1961V25.8039C14.832 25.6011 14 24.6616 14 23.5333C14 22.2569 15.0648 21.2222 16.3784 21.2222C16.8831 21.2222 17.3511 21.375 17.7361 21.6356L23.0156 17.5855C22.7666 17.2201 22.6216 16.7821 22.6216 16.3111C22.6216 15.0347 23.6865 14 25 14C26.3135 14 27.3784 15.0347 27.3784 16.3111C27.3784 16.7821 27.2334 17.2201 26.9844 17.5855L32.2639 21.6356C32.6489 21.375 33.1169 21.2222 33.6216 21.2222C34.9352 21.2222 36 22.2569 36 23.5333C36 24.6616 35.168 25.6011 34.0676 25.8039V28.1961C35.168 28.3989 36 29.3384 36 30.4667C36 31.7431 34.9352 32.7778 33.6216 32.7778C33.1169 32.7778 32.6489 32.625 32.2639 32.3644L26.9844 36.4145ZM24.5541 32.7372V35.4183C24.2202 35.4799 23.911 35.6092 23.6423 35.7911L18.3628 31.741C18.6118 31.3757 18.7568 30.9376 18.7568 30.4667C18.7568 29.9991 18.6138 29.5639 18.3681 29.2001L20.6892 27.5383L23.0102 29.2001C22.7645 29.5639 22.6216 29.9991 22.6216 30.4667C22.6216 31.5949 23.4537 32.5344 24.5541 32.7372ZM26.3577 35.7911C26.089 35.6092 25.7798 35.4799 25.4459 35.4183V32.7372C26.5463 32.5344 27.3784 31.5949 27.3784 30.4667C27.3784 29.9991 27.2355 29.5639 26.9898 29.2001L29.3108 27.5383L31.6319 29.2001C31.3862 29.5639 31.2432 29.9991 31.2432 30.4667C31.2432 30.9376 31.3882 31.3757 31.6372 31.741L26.3577 35.7911ZM19.9374 27L17.7413 28.5724C17.4714 28.3887 17.1604 28.2581 16.8243 28.1961V25.8039C17.1604 25.7419 17.4714 25.6113 17.7413 25.4276L19.9374 27ZM18.3681 24.7999L20.6892 26.4617L23.0102 24.7999C22.7645 24.4361 22.6216 24.0009 22.6216 23.5333C22.6216 22.4051 23.4537 21.4656 24.5541 21.2628V18.5817C24.2202 18.5201 23.911 18.3908 23.6423 18.2089L18.3628 22.259C18.6118 22.6243 18.7568 23.0624 18.7568 23.5333C18.7568 24.0009 18.6138 24.4361 18.3681 24.7999ZM33.1757 28.1961C32.8396 28.2581 32.5286 28.3887 32.2587 28.5724L30.0626 27L32.2587 25.4276C32.5286 25.6113 32.8396 25.7419 33.1757 25.8039V28.1961ZM31.6372 22.259L26.3577 18.2089C26.089 18.3908 25.7798 18.5201 25.4459 18.5817V21.2628C26.5463 21.4656 27.3784 22.4051 27.3784 23.5333C27.3784 24.0009 27.2355 24.4361 26.9898 24.7999L29.3108 26.4617L31.6319 24.7999C31.3862 24.4361 31.2432 24.0009 31.2432 23.5333C31.2432 23.0624 31.3882 22.6243 31.6372 22.259ZM25 28.1556C24.493 28.1556 24.023 28.3097 23.6371 28.5724L21.441 27L23.6371 25.4276C24.023 25.6903 24.493 25.8444 25 25.8444C25.507 25.8444 25.977 25.6903 26.3629 25.4276L28.559 27L26.3629 28.5724C25.977 28.3097 25.507 28.1556 25 28.1556ZM25 24.9778C25.821 24.9778 26.4865 24.3311 26.4865 23.5333C26.4865 22.7356 25.821 22.0889 25 22.0889C24.179 22.0889 23.5135 22.7356 23.5135 23.5333C23.5135 24.3311 24.179 24.9778 25 24.9778ZM26.4865 30.4667C26.4865 31.2644 25.821 31.9111 25 31.9111C24.179 31.9111 23.5135 31.2644 23.5135 30.4667C23.5135 29.6689 24.179 29.0222 25 29.0222C25.821 29.0222 26.4865 29.6689 26.4865 30.4667ZM33.6216 24.9778C34.4426 24.9778 35.1081 24.3311 35.1081 23.5333C35.1081 22.7356 34.4426 22.0889 33.6216 22.0889C32.8007 22.0889 32.1351 22.7356 32.1351 23.5333C32.1351 24.3311 32.8007 24.9778 33.6216 24.9778ZM35.1081 30.4667C35.1081 31.2644 34.4426 31.9111 33.6216 31.9111C32.8007 31.9111 32.1351 31.2644 32.1351 30.4667C32.1351 29.6689 32.8007 29.0222 33.6216 29.0222C34.4426 29.0222 35.1081 29.6689 35.1081 30.4667ZM16.3784 24.9778C17.1993 24.9778 17.8649 24.3311 17.8649 23.5333C17.8649 22.7356 17.1993 22.0889 16.3784 22.0889C15.5574 22.0889 14.8919 22.7356 14.8919 23.5333C14.8919 24.3311 15.5574 24.9778 16.3784 24.9778ZM17.8649 30.4667C17.8649 31.2644 17.1993 31.9111 16.3784 31.9111C15.5574 31.9111 14.8919 31.2644 14.8919 30.4667C14.8919 29.6689 15.5574 29.0222 16.3784 29.0222C17.1993 29.0222 17.8649 29.6689 17.8649 30.4667ZM25 39.1333C25.821 39.1333 26.4865 38.4866 26.4865 37.6889C26.4865 36.8911 25.821 36.2444 25 36.2444C24.179 36.2444 23.5135 36.8911 23.5135 37.6889C23.5135 38.4866 24.179 39.1333 25 39.1333ZM26.4865 16.3111C26.4865 17.1089 25.821 17.7556 25 17.7556C24.179 17.7556 23.5135 17.1089 23.5135 16.3111C23.5135 15.5134 24.179 14.8667 25 14.8667C25.821 14.8667 26.4865 15.5134 26.4865 16.3111Z" fill="white"/>
<defs>
<filter id="filter0_d_0_360" x="-4" y="0" width="58" height="58" filterUnits="userSpaceOnUse" color-interpolation-filters="sRGB">
<feFlood flood-opacity="0" result="BackgroundImageFix"/>
<feColorMatrix in="SourceAlpha" type="matrix" values="0 0 0 0 0 0 0 0 0 0 0 0 0 0 0 0 0 0 127 0" result="hardAlpha"/>
<feOffset dy="2"/>
<feGaussianBlur stdDeviation="2"/>
<feColorMatrix type="matrix" values="0 0 0 0 0.501961 0 0 0 0 0.12549 0 0 0 0 0 0 0 0 0.15 0"/>
<feBlend mode="normal" in2="BackgroundImageFix" result="effect1_dropShadow_0_360"/>
<feBlend mode="normal" in="SourceGraphic" in2="effect1_dropShadow_0_360" result="shape"/>
</filter>
<linearGradient id="paint0_linear_0_360" x1="-25" y1="27" x2="25" y2="77" gradientUnits="userSpaceOnUse">
<stop stop-color="#F2C314"/>
<stop offset="1" stop-color="#FC3832"/>
</linearGradient>
</defs>
</svg>
